<?xml version="1.0" standalone="no"?>
<!DOCTYPE svg PUBLIC "-//W3C//DTD SVG 20010904//EN"
 "http://www.w3.org/TR/2001/REC-SVG-20010904/DTD/svg10.dtd">
<svg version="1.0" xmlns="http://www.w3.org/2000/svg"
 width="1798.000000pt" height="1798.000000pt" viewBox="0 0 1798.000000 1798.000000"
 preserveAspectRatio="xMidYMid meet">

<g transform="translate(0.000000,1798.000000) scale(0.100000,-0.100000)"
fill="#000000" stroke="none">
<path d="M7515 15180 c-1126 -30 -2149 -85 -3060 -165 -315 -28 -774 -74 -792
-80 -10 -4 -13 -768 -13 -3777 l0 -3773 25 -210 c252 -2119 1276 -3723 3020
-4730 611 -353 1359 -636 2030 -769 240 -48 242 -48 415 -14 671 129 1387 376
1960 676 586 306 1060 651 1501 1092 290 290 500 548 722 885 542 827 883
1834 997 2950 8 80 10 1147 8 3890 l-3 3780 -70 7 c-1202 112 -2250 177 -3690
229 -366 13 -2636 20 -3050 9z m611 -690 c253 -21 502 -87 689 -183 l100 -52
3 -1599 c2 -1278 0 -1597 -10 -1593 -362 157 -581 221 -852 248 -187 19 -378
-5 -826 -102 -713 -156 -1045 -205 -1320 -197 l-105 3 -3 1633 c-2 1439 0
1632 13 1632 8 0 88 -7 177 -17 110 -11 258 -16 453 -17 341 0 412 9 610 79
256 91 502 147 729 164 151 12 200 12 342 1z m2270 -15 c48 -9 156 -38 239
-65 248 -81 442 -124 705 -157 116 -14 214 -18 495 -17 193 0 380 5 418 11
l67 9 0 -1628 0 -1628 -107 0 c-281 0 -659 54 -1413 200 -554 108 -595 114
-760 113 -310 -1 -598 -62 -824 -175 -44 -21 -92 -48 -107 -58 -15 -11 -30
-20 -33 -20 -3 0 -6 715 -6 1590 l0 1589 28 15 c51 26 287 108 407 141 136 37
296 71 400 84 121 15 393 13 491 -4z m-5471 -805 c118 -57 179 -164 180 -315
0 -82 -3 -96 -33 -157 -37 -76 -83 -120 -162 -157 -45 -21 -70 -25 -140 -25
-72 0 -94 4 -145 27 -78 36 -127 85 -161 160 -88 198 6 423 206 488 14 5 66 7
115 6 71 -2 100 -8 140 -27z m7627 -132 c130 -44 285 -51 409 -18 163 43 175
45 250 32 164 -28 273 -126 314 -283 l12 -45 -39 19 c-52 26 -158 32 -223 14
-27 -8 -149 -62 -271 -120 -261 -126 -404 -177 -493 -177 l-61 0 0 305 c0 168
2 305 4 305 3 0 47 -14 98 -32z m-6902 -218 l0 -200 -200 0 -200 0 0 200 0
200 200 0 200 0 0 -200z m-729 -1037 c62 -28 125 -92 158 -162 22 -48 26 -69
26 -151 0 -81 -4 -103 -26 -150 -51 -108 -129 -168 -246 -189 -162 -30 -315
46 -382 188 -22 48 -26 69 -26 151 0 77 5 105 23 146 31 69 105 139 178 170
52 22 71 24 154 21 69 -2 108 -9 141 -24z m7648 -43 c74 -14 321 -13 439 2 53
7 140 13 192 13 78 0 102 -4 135 -22 84 -45 153 -141 189 -262 9 -30 16 -55
16 -56 0 -1 -24 10 -52 24 -40 20 -72 27 -132 30 -95 4 -137 -7 -224 -61 -183
-113 -425 -198 -634 -223 l-58 -7 0 305 0 304 38 -18 c20 -10 61 -23 91 -29z
m-6919 -305 l0 -195 -200 0 -200 0 0 195 0 195 200 0 200 0 0 -195z m3464
-1310 c32 -8 116 -40 188 -71 198 -85 290 -97 401 -55 37 14 37 15 37 -11 0
-33 -35 -85 -71 -107 l-30 -19 44 -6 c86 -13 181 25 231 93 28 37 36 31 36
-24 0 -119 -81 -199 -229 -226 -89 -17 -90 -18 -41 -44 71 -37 97 -71 109
-141 19 -122 73 -184 159 -184 l43 0 -16 -30 c-29 -56 -92 -66 -164 -25 -23
14 -45 25 -47 25 -11 0 -1 -37 26 -90 22 -43 34 -89 45 -167 8 -59 22 -129 30
-154 17 -51 73 -122 118 -149 28 -17 28 -19 10 -29 -34 -18 -87 5 -147 64 -31
30 -60 55 -65 55 -6 0 1 -24 14 -53 35 -75 41 -148 21 -246 -17 -85 -63 -221
-75 -221 -14 1 -39 28 -80 88 -41 58 -105 112 -118 99 -3 -3 6 -25 21 -49 45
-75 75 -141 91 -203 19 -70 32 -284 18 -308 -14 -26 -43 0 -88 77 -21 36 -49
75 -62 87 l-23 22 0 -24 c0 -92 69 -247 144 -321 89 -88 147 -168 195 -267 60
-124 62 -171 26 -448 -15 -115 -29 -210 -31 -212 -11 -12 -71 65 -116 147 -27
50 -54 92 -59 92 -17 0 -9 -85 15 -153 26 -74 71 -148 128 -214 47 -55 82
-194 76 -302 -5 -95 -18 -106 -53 -44 -61 106 -95 153 -114 153 -18 0 -17 -7
15 -102 59 -171 75 -252 81 -398 6 -158 -5 -223 -63 -374 -29 -75 -40 -94 -45
-80 -4 10 -33 126 -64 256 -31 131 -60 240 -65 243 -14 9 -77 -63 -147 -168
-36 -54 -87 -122 -113 -150 l-47 -51 -12 105 c-15 139 -62 366 -105 517 -54
186 -126 346 -146 326 -13 -13 -296 -770 -324 -868 -71 -243 -73 -542 -7 -756
11 -36 19 -65 17 -67 -7 -7 -106 218 -130 294 -63 204 -92 472 -67 633 21 134
47 198 109 259 l54 55 -4 67 c-5 71 -32 132 -60 137 -12 2 -18 -13 -27 -75 -6
-43 -21 -98 -34 -123 -18 -37 -26 -45 -47 -42 -31 3 -69 38 -86 79 -34 80 -4
244 61 328 95 125 123 256 61 297 -20 14 -26 8 -55 -54 -34 -75 -87 -131 -101
-108 -23 35 -49 122 -60 199 -33 226 74 530 267 757 42 50 56 94 30 94 -7 0
-38 -18 -68 -41 -56 -42 -121 -79 -139 -79 -18 0 -12 170 9 252 55 216 190
347 388 379 l74 12 -52 21 c-37 15 -59 31 -72 54 l-19 32 22 0 c52 0 230 43
287 70 72 33 139 97 154 149 6 20 9 63 7 96 l-3 60 -43 -58 c-79 -106 -204
-164 -267 -123 -32 21 -32 28 6 45 39 17 69 66 69 113 0 27 -8 44 -30 66 -38
39 -73 46 -175 37 -95 -8 -122 2 -174 60 -40 46 -42 69 -4 54 42 -16 99 -1
208 54 91 47 105 51 170 51 94 1 151 -30 238 -125 l66 -72 11 43 c19 70 -1
138 -57 194 -34 35 -130 82 -184 91 -35 6 -43 13 -65 57 -56 110 -158 174
-297 185 l-67 6 -19 41 c-45 102 -119 148 -203 125 -52 -13 -116 -75 -124
-118 l-7 -32 -34 33 c-82 79 -96 166 -44 273 34 68 106 142 172 175 35 18 37
18 52 2 9 -10 30 -51 46 -92 17 -41 40 -83 52 -92 22 -19 74 -24 83 -9 3 5
-10 43 -29 84 -36 78 -44 137 -22 155 34 28 64 24 106 -13 47 -43 62 -41 90
12 62 122 238 181 405 138z m-2058 -225 c121 -59 181 -168 204 -371 7 -58 6
-124 -2 -212 l-11 -128 28 -29 c32 -33 105 -64 177 -74 l48 -7 -16 -32 c-46
-90 -109 -137 -184 -137 -23 0 -75 12 -116 26 -88 30 -114 29 -132 -9 -7 -15
-41 -50 -75 -77 -102 -82 -128 -139 -113 -245 5 -33 18 -58 43 -86 29 -32 36
-48 40 -97 5 -52 3 -61 -21 -89 -33 -39 -36 -121 -7 -169 39 -64 108 -67 311
-14 238 62 269 61 393 -15 40 -24 86 -46 102 -49 51 -10 60 4 59 94 -1 95 -7
103 -104 160 -118 69 -156 127 -144 215 9 69 64 221 110 302 l37 67 21 -65
c47 -144 102 -208 285 -331 75 -51 158 -115 185 -142 62 -64 112 -167 133
-277 l16 -84 -31 -110 c-17 -61 -34 -128 -38 -151 -7 -45 17 -154 42 -192 15
-22 13 -29 -30 -115 -65 -128 -87 -222 -93 -390 -8 -195 20 -317 94 -413 l35
-46 -17 -69 c-12 -50 -16 -98 -13 -172 3 -88 7 -110 33 -162 16 -33 50 -80 75
-105 l47 -46 -20 -54 c-29 -78 -28 -291 1 -405 38 -149 3 -109 -82 93 -83 199
-149 303 -254 403 -137 130 -324 207 -512 212 l-85 2 -3 -43 c-4 -56 21 -108
94 -192 73 -84 111 -164 125 -265 10 -74 6 -214 -7 -250 -9 -22 -37 -3 -75 50
-18 25 -65 71 -104 104 -85 70 -125 138 -151 262 -10 43 -21 79 -25 79 -4 0
-33 -23 -63 -51 -72 -65 -157 -194 -190 -287 -30 -84 -49 -225 -41 -309 6 -71
9 -77 -74 137 -45 115 -66 180 -60 190 4 8 74 98 154 200 191 243 226 295 329
485 97 181 140 280 131 303 -4 12 -11 10 -36 -14 -71 -67 -235 -280 -501 -652
-77 -108 -142 -199 -144 -201 -2 -2 -11 16 -20 40 -10 24 -43 94 -74 155 l-56
111 63 79 c35 44 91 119 124 167 90 131 294 565 275 584 -12 12 -57 -47 -179
-235 -62 -95 -165 -254 -230 -353 l-117 -181 -62 56 c-75 69 -104 73 -113 19
-3 -21 -13 -66 -21 -100 -7 -34 -14 -94 -14 -132 l0 -71 -136 -140 c-137 -141
-270 -258 -280 -247 -6 6 -15 81 -29 234 l-6 71 123 139 c215 240 256 292 364
467 115 184 208 347 219 384 29 98 -157 -113 -638 -727 l-88 -113 -34 56 c-19
31 -54 80 -79 109 l-45 53 71 99 c39 55 111 161 161 235 128 192 309 572 283
597 -21 21 -213 -255 -582 -839 -23 -35 -25 -37 -55 -26 l-32 11 7 80 c4 44
25 177 46 296 40 217 47 285 31 295 -25 16 -75 -94 -116 -251 -23 -86 -50
-235 -70 -385 -5 -37 -10 -48 -24 -48 -33 0 -175 -40 -188 -53 -24 -23 2 -83
50 -114 27 -18 51 -45 66 -77 30 -60 32 -144 6 -316 -30 -201 -12 -303 75
-415 22 -29 40 -62 40 -73 0 -20 -5 -22 -59 -22 -70 0 -106 -12 -142 -47 l-27
-25 -16 70 c-23 100 -63 358 -77 487 -14 136 -14 572 0 800 6 94 24 271 41
394 31 234 37 321 20 321 -21 0 -91 -159 -435 -1000 -235 -574 -319 -776 -334
-799 -14 -22 -40 -5 -59 36 -25 56 -22 236 7 382 95 484 381 1146 653 1512 47
63 68 100 68 120 0 64 -41 33 -290 -220 -335 -340 -521 -460 -712 -461 -42 0
-79 4 -82 8 -6 10 175 190 528 523 318 299 464 445 517 515 67 87 52 95 -60
30 -364 -209 -648 -270 -921 -196 l-42 11 168 91 c697 374 1043 643 1079 841
5 22 3 37 -3 37 -5 0 -61 -26 -124 -59 -335 -171 -639 -241 -853 -196 -147 31
-152 22 77 159 329 198 1272 790 1478 929 48 32 56 35 108 30 67 -6 126 8 165
40 l29 23 -104 -4 c-120 -5 -176 7 -221 48 -28 25 -32 34 -31 77 0 27 11 70
23 98 l22 50 13 -30 c30 -68 101 -105 201 -105 95 0 193 23 391 91 221 76 280
90 373 85 57 -4 88 -12 137 -36z m4606 14 c119 -22 238 -60 384 -119 142 -58
247 -81 320 -70 49 7 56 -4 28 -43 -22 -31 -50 -44 -124 -57 -55 -9 -65 -14
-68 -32 -3 -18 4 -24 35 -31 138 -35 209 -58 286 -92 163 -71 327 -180 327
-217 0 -13 -8 -14 -40 -9 -22 3 -40 4 -40 2 0 -3 58 -63 128 -133 70 -70 149
-155 175 -188 25 -33 171 -181 324 -329 153 -148 280 -273 281 -278 7 -15 -39
-8 -98 16 -127 52 -373 234 -627 465 -68 61 -125 111 -128 111 -3 0 -5 -8 -5
-18 0 -37 67 -117 299 -360 336 -353 463 -495 593 -667 68 -90 161 -232 203
-307 30 -56 34 -68 20 -68 -31 0 -195 59 -300 109 -275 130 -343 197 -601 603
-167 262 -211 324 -263 371 -43 38 -91 50 -91 22 0 -8 94 -169 208 -358 495
-814 577 -972 657 -1264 56 -204 65 -291 65 -649 0 -431 -22 -648 -76 -761
-22 -46 -49 -72 -61 -59 -14 14 -126 453 -268 1046 -198 830 -328 1189 -529
1465 -76 104 -70 63 24 -181 244 -626 372 -1121 405 -1564 l6 -86 -73 -23
c-145 -47 -314 -136 -385 -204 l-33 -31 0 160 c0 190 -12 336 -46 543 -48 302
-158 694 -220 790 l-17 25 -9 -23 c-11 -32 3 -163 63 -590 27 -195 48 -361 47
-369 -2 -7 -46 40 -98 104 -288 358 -497 594 -526 594 -8 0 -14 -10 -14 -22 0
-42 203 -398 297 -521 68 -89 200 -223 283 -287 l71 -55 -5 -145 c-5 -129 -24
-262 -41 -290 -17 -27 -93 55 -439 470 -357 429 -459 540 -495 540 -24 0 -7
-48 67 -193 170 -329 201 -368 575 -731 l246 -239 -26 -51 c-30 -60 -101 -162
-135 -193 l-23 -22 -145 109 c-80 61 -155 121 -166 134 -14 15 -24 45 -29 82
-17 141 -63 180 -163 138 l-37 -15 -44 48 c-251 274 -374 393 -407 393 -25 0
-15 -44 31 -133 72 -141 133 -227 222 -314 l84 -82 -40 -67 c-34 -56 -72 -144
-95 -217 -9 -27 -23 -16 -208 162 -178 170 -203 190 -221 172 -8 -8 -4 -27 13
-68 51 -126 112 -194 288 -325 50 -37 92 -69 92 -71 0 -11 -70 -209 -83 -233
-24 -47 -280 -276 -506 -453 -41 -33 -43 -34 -36 -10 16 52 75 171 120 240 86
133 175 214 325 295 85 46 89 58 44 127 -45 69 -73 79 -199 73 -60 -3 -130 -9
-155 -12 l-45 -6 -2 57 c-2 31 -16 125 -32 208 -33 170 -51 298 -51 370 0 45
-1 48 -22 42 -58 -18 -129 -66 -199 -135 l-77 -75 -7 -70 c-18 -188 -38 -264
-91 -350 -64 -103 -98 -168 -120 -230 l-22 -60 -18 40 c-13 30 -19 80 -24 205
-4 91 -12 178 -18 193 -7 16 -32 57 -57 92 -66 91 -111 197 -134 311 -31 155
-30 181 7 232 73 102 86 243 37 416 -26 91 -27 107 -22 220 3 66 16 203 28
304 20 160 21 193 11 265 -17 117 -69 219 -167 324 l-76 82 15 53 c8 29 20 89
26 132 6 44 12 81 14 83 1 2 22 -4 46 -12 23 -8 64 -15 90 -15 65 0 100 30
135 117 68 166 70 169 128 206 30 19 68 52 83 73 40 52 41 143 2 227 -15 31
-25 57 -23 57 2 0 27 -9 56 -20 126 -50 187 -126 176 -219 -3 -26 -24 -88 -46
-139 -65 -148 -57 -168 75 -166 122 2 209 31 278 94 64 59 89 107 110 209 21
102 47 149 128 236 55 59 71 83 75 113 9 69 -29 111 -131 146 -17 6 -18 13
-12 71 4 36 9 73 12 82 4 10 -37 -26 -90 -79 -146 -148 -189 -162 -336 -108
-95 35 -141 37 -212 10 -28 -11 -54 -18 -56 -15 -9 9 9 73 26 88 9 8 60 32
112 54 223 91 306 199 229 297 -15 19 -17 32 -10 75 9 60 53 128 148 231 100
108 197 144 289 105 34 -14 36 -13 95 25 58 37 182 85 244 93 43 6 138 -2 227
-19z m-3709 -499 c18 -36 40 -56 87 -81 32 -17 61 -19 320 -19 279 0 286 -1
338 -24 46 -21 150 -116 139 -128 -2 -2 -21 4 -43 13 -24 11 -78 19 -139 22
-84 3 -129 -1 -280 -29 -213 -39 -344 -44 -417 -16 -49 19 -121 88 -138 133
-25 65 0 146 69 217 l36 38 6 -48 c4 -27 13 -62 22 -78z m1120 -3162 c62 -203
72 -263 72 -428 0 -114 -4 -167 -18 -219 -22 -81 -25 -230 -7 -369 16 -129 21
-134 37 -37 18 112 69 260 124 357 41 73 201 253 225 253 5 0 22 -48 38 -108
16 -59 39 -147 53 -197 13 -49 26 -133 29 -185 11 -175 -29 -286 -196 -555
-44 -71 -88 -152 -96 -180 -11 -34 -17 -103 -20 -220 l-4 -170 54 160 c63 189
115 296 197 407 113 153 153 255 193 496 34 201 68 292 157 404 l37 48 11 -48
c7 -26 23 -63 36 -83 32 -49 45 -102 45 -185 0 -136 -51 -282 -175 -499 -41
-71 -77 -138 -81 -147 -17 -48 118 5 177 68 58 62 81 102 109 186 l27 79 22
-58 c29 -73 38 -162 21 -202 -7 -18 -43 -54 -86 -86 -149 -112 -220 -260 -197
-409 l8 -48 81 93 c235 274 303 408 309 610 3 118 8 130 108 295 30 49 66 120
82 159 28 71 65 227 65 278 0 15 6 43 14 62 15 35 102 135 117 135 5 0 9 -19
9 -43 0 -24 11 -110 25 -193 40 -237 31 -338 -39 -471 -23 -43 -29 -63 -20
-63 7 0 52 25 99 56 108 70 174 94 262 94 80 0 114 -14 60 -24 -70 -13 -173
-74 -230 -136 -70 -75 -101 -130 -177 -315 -110 -266 -172 -361 -298 -453 -76
-55 -101 -85 -131 -156 l-20 -45 32 5 c199 36 373 154 579 397 50 58 97 99
185 159 221 150 294 221 371 358 44 78 109 246 139 359 14 53 36 117 50 143
33 60 123 162 134 151 5 -5 13 -43 19 -86 25 -175 -55 -554 -150 -710 -18 -30
-70 -97 -116 -148 -45 -51 -81 -96 -78 -100 12 -20 401 180 568 292 220 147
348 275 465 466 172 279 213 328 350 422 142 97 383 209 345 160 -6 -8 -31
-39 -55 -69 -79 -98 -90 -123 -105 -233 -22 -162 -73 -301 -160 -439 -13 -21
-24 -42 -24 -48 0 -22 64 -9 118 25 58 35 99 44 140 31 30 -10 28 -20 -11 -38
-49 -23 -91 -62 -159 -147 -164 -204 -291 -300 -489 -369 -115 -40 -236 -65
-524 -107 -132 -19 -283 -46 -335 -60 -198 -53 -369 -133 -568 -269 -75 -51
-195 -132 -267 -181 -146 -99 -333 -194 -443 -224 -102 -28 -157 -60 -157 -91
0 -18 6 -26 23 -28 12 -2 68 -27 125 -56 131 -68 227 -91 346 -83 114 8 185
33 369 128 83 43 221 115 305 158 83 44 170 87 192 97 39 16 37 13 -45 -73
-47 -49 -136 -144 -198 -211 -175 -189 -261 -245 -479 -316 -307 -99 -635
-127 -922 -80 -114 19 -177 13 -258 -25 -66 -32 -147 -103 -141 -123 3 -8 15
-11 34 -8 16 3 61 5 99 5 89 -1 140 -24 225 -99 110 -98 247 -166 335 -166 71
0 131 28 208 98 92 84 158 113 274 120 64 3 96 0 150 -16 70 -22 172 -81 207
-120 19 -22 19 -22 -8 -22 -37 0 -96 -26 -130 -58 -16 -15 -70 -79 -121 -142
-51 -63 -111 -130 -134 -148 -92 -74 -205 -112 -331 -112 -140 1 -201 26 -448
184 -187 119 -244 151 -310 170 -70 20 -106 12 -142 -33 -61 -73 -49 -152 42
-270 32 -42 89 -116 128 -165 128 -164 134 -268 25 -385 -122 -131 -271 -125
-440 16 -52 43 -175 181 -175 196 0 3 28 -4 63 -15 43 -14 92 -21 159 -22 83
-1 100 2 125 20 64 48 51 126 -52 299 -69 115 -98 192 -110 288 -5 38 -12 57
-21 57 -15 0 -55 -33 -185 -156 -181 -170 -330 -277 -466 -335 -72 -31 -86
-34 -183 -34 -152 0 -174 13 -391 226 -280 276 -477 436 -642 525 l-59 31 114
7 c248 15 489 -26 650 -111 89 -47 144 -96 203 -182 137 -204 296 -240 456
-105 50 42 230 248 279 319 46 67 42 78 -42 113 -187 77 -334 106 -528 105
-121 0 -160 -5 -235 -25 -49 -14 -99 -29 -109 -33 -62 -27 142 189 240 254
169 114 318 129 482 49 82 -40 183 -127 246 -210 28 -36 55 -64 60 -61 19 12
-3 113 -41 185 -73 141 -206 244 -383 300 -64 19 -96 23 -215 23 -132 -1 -146
-3 -235 -33 -52 -18 -180 -75 -285 -127 -282 -140 -355 -161 -460 -130 -110
32 -299 138 -450 254 -89 67 -280 257 -334 331 -54 73 -106 159 -99 165 2 2
42 -21 88 -52 158 -102 335 -183 499 -225 64 -16 117 -22 206 -22 141 -1 183
9 315 75 148 74 213 91 370 96 215 8 359 -24 672 -149 98 -39 181 -68 185 -64
4 4 -19 32 -52 62 -246 223 -460 318 -765 339 -177 13 -487 -33 -629 -94 -91
-39 -162 -51 -228 -41 -72 12 -124 37 -244 116 -57 38 -126 76 -154 86 -27 9
-50 20 -50 25 0 4 42 36 94 70 172 115 338 145 528 95 142 -38 157 -27 59 42
-112 81 -154 95 -367 122 -408 52 -746 121 -1119 230 -178 53 -400 132 -400
144 0 4 16 22 35 39 73 64 219 78 380 37 50 -13 91 -22 93 -21 2 2 -18 18 -45
36 -73 50 -205 186 -252 258 -47 74 -81 173 -81 238 0 24 9 104 21 176 27 169
22 249 -21 331 -16 33 -29 60 -28 61 10 8 131 -16 164 -33 118 -60 159 -164
185 -477 18 -215 48 -329 110 -416 21 -29 94 -89 109 -89 4 0 -1 24 -11 53
-34 99 -16 202 48 269 l25 26 34 -66 c73 -146 211 -267 367 -322 59 -21 69
-17 108 47 l21 34 -30 58 c-89 165 -128 375 -119 636 3 94 10 181 15 194 l8
23 28 -32 c15 -18 47 -74 71 -125 42 -88 55 -125 125 -385 38 -141 89 -248
172 -361 35 -48 89 -123 121 -168 56 -79 101 -121 114 -107 17 16 14 171 -5
297 -30 195 -31 214 -21 287 12 83 53 172 109 235 l42 48 29 -62 c45 -95 86
-145 165 -199 83 -57 87 -67 104 -205 8 -67 8 -111 -1 -174 -20 -147 2 -223
89 -310 74 -72 289 -215 502 -331 362 -198 494 -293 615 -444 l70 -87 3 43 c5
59 -12 108 -57 168 -57 76 -133 137 -346 277 -301 200 -429 304 -521 427 -127
169 -176 346 -154 555 7 72 8 162 2 281 -10 213 -18 235 -127 349 -43 45 -74
81 -69 81 5 0 38 -7 73 -15 126 -30 263 -122 372 -250 159 -187 308 -490 380
-773 47 -183 62 -209 220 -378 55 -60 137 -157 182 -216 44 -59 82 -107 83
-105 2 2 -15 66 -36 142 -80 278 -110 488 -110 754 0 342 61 601 207 884 31
59 59 107 63 107 4 0 23 -53 43 -117z m-2639 -743 c5 -19 19 -73 32 -119 13
-47 22 -87 19 -89 -8 -8 -81 56 -137 120 -72 82 -106 135 -114 178 -7 33 -4
36 87 121 l94 87 6 -131 c3 -73 9 -148 13 -167z m5565 -70 l124 -104 -60 -57
c-33 -30 -76 -68 -96 -83 l-35 -27 -69 39 c-49 28 -68 44 -67 58 2 28 34 255
40 283 4 21 7 22 22 9 9 -8 73 -61 141 -118z m-164 -316 l26 -17 -23 -24 c-30
-32 -123 -93 -141 -93 -12 0 -5 22 26 90 46 100 33 95 112 44z m980 -211 c-24
-102 -85 -282 -131 -386 -77 -174 -195 -357 -230 -357 -23 0 -44 45 -55 114
-12 77 1 229 29 341 l18 70 76 41 c99 54 158 98 237 178 36 36 66 64 68 63 1
-2 -4 -31 -12 -64z m-7223 -47 l96 -37 22 -82 c54 -201 22 -472 -56 -472 -24
0 -107 162 -162 319 -35 98 -112 347 -112 361 0 3 26 -8 58 -23 31 -16 100
-45 154 -66z"/>
<path d="M7579 14026 c-131 -47 -217 -166 -227 -314 -3 -54 0 -84 13 -119 38
-98 159 -181 280 -190 l64 -6 81 54 c109 73 105 84 -30 84 -93 0 -109 3 -143
24 -21 13 -50 42 -65 64 l-26 40 127 124 c82 79 125 128 121 136 -26 42 -80
97 -106 106 -38 14 -44 13 -89 -3z m61 -149 c18 -12 15 -18 -54 -93 l-74 -79
-11 40 c-23 83 -13 134 37 188 l26 27 28 -35 c16 -19 38 -41 48 -48z"/>
<path d="M8183 13979 c-88 -16 -204 -98 -243 -171 -22 -42 -23 -50 -12 -87 7
-23 31 -60 52 -83 22 -23 40 -44 39 -47 0 -3 -36 -37 -79 -76 -43 -38 -78 -74
-76 -80 1 -5 33 -26 71 -45 117 -59 241 -53 364 18 65 37 128 99 141 138 17
50 -18 118 -83 161 l-47 32 70 57 c38 32 70 61 70 65 0 12 -79 78 -117 97 -48
24 -96 31 -150 21z m-8 -128 c33 -17 69 -37 80 -46 20 -16 19 -17 -15 -45 -59
-49 -132 -36 -186 35 -23 30 -24 37 -13 51 13 16 44 32 64 33 6 1 37 -12 70
-28z m103 -298 c37 -28 40 -50 12 -85 -30 -39 -73 -53 -118 -40 -47 14 -132
70 -132 86 0 7 26 33 57 58 l57 45 46 -20 c25 -11 60 -30 78 -44z"/>
<path d="M6866 13904 c-36 -30 -66 -58 -66 -63 0 -5 17 -15 38 -21 73 -24 72
-20 72 -245 l0 -202 31 -7 c17 -3 49 -3 70 0 l39 7 0 216 c0 210 1 217 21 229
20 13 26 10 69 -33 l48 -48 64 44 c41 29 64 53 66 68 3 18 -1 22 -17 19 -13
-2 -37 13 -69 45 l-49 48 -63 -40 c-54 -35 -66 -39 -79 -28 -9 8 -37 25 -63
39 l-47 26 -65 -54z"/>
<path d="M6640 13918 c0 -8 -6 -22 -13 -32 -12 -17 -16 -17 -77 -1 -36 10
-104 18 -151 18 -81 1 -89 -1 -144 -33 -67 -41 -125 -102 -157 -168 -30 -61
-32 -192 -5 -264 22 -55 80 -111 159 -151 68 -34 155 -36 281 -5 l88 22 39
-45 c32 -36 41 -42 52 -31 11 11 9 20 -10 52 -20 35 -22 53 -22 164 0 87 -4
126 -11 126 -8 0 -8 4 0 14 8 9 11 65 9 177 -3 147 -5 164 -20 167 -10 2 -18
-3 -18 -10z m-121 -98 c63 -32 86 -68 101 -156 23 -143 10 -217 -53 -283 -37
-39 -100 -70 -141 -71 -43 0 -111 36 -141 75 -62 82 -79 228 -37 320 27 59 65
102 107 121 44 20 120 17 164 -6z"/>
<path d="M8544 13675 c-13 -34 9 -50 75 -53 49 -2 61 0 61 12 0 22 -37 44 -87
52 -35 5 -44 3 -49 -11z"/>
<path d="M8536 13581 c-10 -16 2 -31 40 -47 49 -21 104 -19 104 4 0 9 -9 23
-21 30 -29 18 -115 27 -123 13z"/>
<path d="M7870 13276 c-9 -25 -12 -26 -108 -26 -113 0 -148 -9 -214 -57 -58
-42 -93 -108 -85 -160 11 -65 52 -93 250 -168 106 -40 137 -69 137 -128 0 -84
-68 -119 -191 -97 -109 20 -137 44 -169 143 -19 59 -45 74 -56 32 -8 -32 12
-255 24 -267 12 -12 42 1 42 18 0 7 11 21 24 29 21 14 34 15 82 6 84 -16 190
-14 224 4 90 47 138 208 91 311 -28 61 -65 82 -191 108 -154 31 -193 63 -149
120 26 33 75 56 121 56 46 0 126 -40 167 -83 19 -20 38 -34 43 -31 19 12 0
196 -23 210 -5 3 -13 -6 -19 -20z"/>
<path d="M7205 13208 c-48 -77 -107 -143 -157 -175 -21 -13 -38 -28 -38 -33 0
-5 16 -16 35 -24 l35 -15 0 -146 c0 -181 10 -223 61 -270 60 -54 87 -49 149
26 53 64 56 84 11 74 -62 -13 -86 37 -97 207 l-7 96 49 7 c154 20 149 18 149
45 0 25 0 25 -81 21 l-81 -3 -7 32 c-10 52 -7 77 15 142 28 85 11 93 -36 16z"/>
<path d="M8487 13232 c-48 -49 -51 -101 -10 -144 33 -35 53 -35 92 -2 26 21
31 33 31 68 0 35 -6 48 -38 79 l-38 37 -37 -38z"/>
<path d="M6286 13120 c-179 -91 -268 -216 -269 -380 -1 -89 19 -136 83 -194
59 -53 113 -76 185 -76 l60 0 27 48 c15 26 34 56 42 67 15 19 13 20 -52 21
-140 1 -243 102 -242 236 1 102 40 168 97 168 28 0 43 -9 82 -49 l48 -49 52
52 52 52 -48 67 c-26 37 -50 67 -53 67 -3 0 -32 -14 -64 -30z"/>
<path d="M6734 13089 c-52 -15 -127 -72 -163 -125 -30 -45 -33 -54 -28 -107 3
-32 13 -69 22 -83 16 -25 16 -27 -8 -53 -44 -48 -57 -75 -57 -121 0 -54 32
-107 85 -140 l35 -22 25 30 c23 27 112 80 118 71 2 -2 12 -26 23 -54 12 -31
26 -50 36 -50 18 0 158 128 158 145 0 7 -12 9 -33 5 -57 -11 -61 2 -55 197 l6
172 -45 63 c-38 54 -72 86 -85 82 -2 0 -17 -5 -34 -10z m-27 -111 c37 -41 51
-72 58 -130 6 -52 4 -58 -17 -72 -49 -32 -82 -31 -121 4 -64 55 -60 129 10
190 40 36 44 36 70 8z m63 -312 l0 -74 -30 -7 c-23 -5 -41 0 -75 19 -58 34
-72 59 -51 91 14 21 19 22 44 13 25 -10 35 -8 63 9 19 12 37 22 42 22 4 1 7
-32 7 -73z"/>
<path d="M8179 13040 c-140 -105 -184 -173 -184 -285 1 -52 6 -81 22 -111 41
-77 116 -132 192 -140 35 -4 37 -3 89 78 67 104 72 151 10 91 -26 -24 -30 -25
-65 -15 -67 21 -103 49 -128 105 -30 64 -32 126 -6 158 17 21 29 24 110 27 84
4 93 6 111 29 11 14 20 31 20 37 0 9 -95 66 -111 66 -3 0 -30 -18 -60 -40z"/>
<path d="M8543 12990 c-26 -10 -163 -138 -163 -152 0 -6 16 -7 38 -3 32 5 42
2 65 -19 l27 -25 0 -151 0 -151 38 -34 c20 -19 42 -35 47 -35 6 0 39 28 73 62
60 60 62 63 40 71 -78 29 -72 15 -78 197 -5 162 -6 166 -34 208 -16 23 -29 42
-30 41 0 0 -11 -4 -23 -9z"/>
<path d="M7781 12432 c-12 -17 -38 -41 -58 -53 l-36 -22 34 -29 c19 -16 46
-37 60 -48 l26 -19 58 59 58 59 -35 14 c-19 8 -46 27 -60 42 l-25 27 -22 -30z"/>
<path d="M7449 12358 c-22 -56 -80 -151 -121 -201 l-40 -47 30 -28 30 -28 4
-150 c2 -126 6 -153 22 -177 38 -57 124 -77 143 -34 6 12 34 53 62 90 40 51
48 69 37 73 -8 3 -28 -4 -44 -16 -30 -22 -31 -22 -61 -4 -36 21 -37 25 -46
121 -9 91 -2 113 34 113 62 0 91 11 91 35 0 21 -6 24 -61 30 l-62 7 8 87 c12
125 11 154 -1 158 -6 2 -17 -11 -25 -29z"/>
<path d="M6359 12241 c-144 -95 -209 -192 -217 -324 -4 -71 -2 -82 27 -141 36
-73 108 -145 189 -189 l52 -28 18 31 c9 18 41 65 70 106 49 68 57 94 30 94 -5
0 -21 -9 -35 -20 -14 -11 -40 -20 -57 -20 -38 0 -105 30 -129 57 -17 20 -14
23 132 142 l149 122 -47 63 c-26 34 -56 84 -67 109 -10 26 -24 47 -29 47 -6 0
-45 -22 -86 -49z m5 -110 c8 -15 32 -50 52 -76 20 -26 32 -50 27 -54 -4 -3
-46 -34 -92 -68 -45 -35 -86 -63 -90 -63 -14 0 -43 77 -43 113 0 49 28 102 75
142 22 19 44 35 49 35 4 0 14 -13 22 -29z"/>
<path d="M8322 12254 c-28 -14 -75 -47 -103 -74 l-52 -49 5 -75 c3 -41 10 -82
17 -89 9 -11 8 -17 -4 -27 -9 -8 -28 -33 -41 -56 -47 -80 -27 -214 39 -257 22
-14 27 -13 92 29 38 24 85 49 105 55 35 11 40 9 100 -35 34 -25 65 -46 69 -46
14 0 131 113 131 126 0 17 -14 18 -39 2 -15 -9 -26 -9 -44 -1 -28 13 -31 35
-43 251 l-7 124 -50 59 c-44 53 -90 89 -115 89 -4 0 -31 -12 -60 -26z m17
-134 c46 -34 61 -63 61 -120 0 -61 -6 -69 -45 -60 -113 25 -164 103 -118 181
22 37 49 37 102 -1z m9 -230 l43 0 -3 -57 -3 -57 -48 -15 -48 -15 -34 35 c-45
45 -52 77 -25 111 19 25 22 26 48 12 15 -7 46 -14 70 -14z"/>
<path d="M6717 12187 l-67 -62 28 -35 c51 -62 52 -67 52 -279 l0 -201 60 0 60
0 1 218 0 217 31 24 31 25 36 -20 36 -19 0 -205 c0 -151 4 -214 14 -237 7 -18
15 -33 18 -33 14 0 183 135 180 144 -2 6 -18 10 -36 8 -24 -1 -31 2 -31 15 0
40 -21 351 -26 381 -5 32 -57 102 -75 102 -5 0 -44 -26 -85 -57 -86 -65 -81
-66 -130 30 -13 26 -25 47 -27 47 -1 -1 -32 -29 -70 -63z"/>
<path d="M7766 12169 c-85 -79 -102 -115 -43 -88 20 9 32 7 66 -10 l41 -21 0
-148 c1 -157 0 -153 59 -207 l33 -30 58 64 58 65 -32 15 -31 16 -5 145 -5 145
-43 63 c-27 38 -50 62 -61 62 -11 0 -53 -32 -95 -71z"/>
<path d="M10432 14197 c-61 -63 -34 -167 44 -167 46 0 74 36 74 92 0 42 -4 50
-37 77 -21 17 -40 31 -43 31 -3 0 -20 -15 -38 -33z"/>
<path d="M10033 14121 c-55 -7 -80 -22 -69 -40 4 -6 18 -11 31 -11 36 0 65
-44 65 -98 0 -39 -74 -284 -99 -330 -8 -13 -107 186 -131 262 -12 38 -11 41
14 63 15 13 33 23 40 23 21 0 41 29 29 41 -15 15 -464 58 -486 47 -32 -16 -12
-33 44 -38 30 -3 67 -13 81 -22 50 -33 177 -282 282 -553 26 -66 50 -129 55
-140 10 -25 42 57 162 414 48 146 98 278 109 293 12 16 42 38 67 49 69 29 52
44 -53 45 -49 1 -113 -1 -141 -5z"/>
<path d="M10981 14041 c-28 -54 -112 -143 -171 -181 -28 -18 -50 -38 -50 -45
0 -7 16 -23 35 -35 34 -21 35 -23 35 -88 0 -81 16 -228 31 -297 14 -62 34
-102 67 -137 43 -47 63 -38 122 52 57 89 59 112 8 108 -26 -3 -35 2 -45 23
-12 26 -41 325 -32 334 4 3 244 35 272 35 5 0 7 12 5 28 l-3 27 -120 3 c-80 2
-122 7 -127 15 -13 20 -9 81 7 127 8 23 15 49 15 56 0 28 -30 13 -49 -25z"/>
<path d="M10304 13874 c-54 -49 -82 -80 -76 -86 6 -6 18 -5 33 2 19 11 30 9
74 -16 l52 -28 7 -74 c3 -41 6 -115 6 -164 0 -97 6 -116 53 -165 27 -29 37
-33 83 -33 51 0 52 1 91 53 22 28 42 57 46 64 5 7 -10 17 -40 27 -26 9 -60 28
-75 43 l-28 27 0 166 0 166 -48 47 c-28 27 -57 47 -70 47 -13 0 -56 -30 -108
-76z"/>
<path d="M11489 13780 c-20 -10 -61 -46 -92 -80 -66 -71 -74 -106 -31 -137
l26 -19 -30 -47 c-73 -115 -65 -228 25 -335 l28 -34 40 32 c44 36 130 80 156
80 9 0 22 -13 29 -29 6 -16 22 -39 36 -52 l24 -22 62 68 c35 37 64 71 66 76 2
4 -18 27 -44 51 l-47 43 6 168 6 168 -45 32 c-83 59 -151 71 -215 37z m64
-112 c60 -38 67 -52 67 -128 0 -72 3 -71 -115 -12 -81 40 -125 69 -125 83 0 5
19 30 41 54 47 51 54 52 132 3z m0 -203 l67 -27 0 -77 0 -76 -50 -16 c-49 -15
-50 -15 -74 10 -34 35 -56 92 -56 141 0 47 16 84 33 77 7 -3 42 -17 80 -32z"/>
<path d="M9994 13173 c-9 -14 -30 -17 -145 -18 -196 -2 -293 -34 -398 -130
-70 -65 -111 -137 -118 -209 -8 -77 13 -178 48 -225 29 -41 133 -108 204 -132
57 -19 215 -16 307 5 83 19 98 16 98 -15 0 -14 6 -19 18 -17 15 3 17 19 19
148 0 80 3 248 5 375 3 198 1 230 -12 233 -8 1 -20 -5 -26 -15z m-107 -121
c23 -12 54 -38 69 -57 30 -40 49 -116 31 -127 -23 -14 -237 -49 -338 -55 -127
-7 -149 1 -149 53 0 76 66 158 156 194 65 27 171 23 231 -8z m-102 -312 c99
-11 188 -23 197 -26 32 -10 4 -96 -48 -147 -45 -45 -89 -59 -170 -54 -110 6
-194 65 -246 172 -41 84 -25 88 267 55z"/>
<path d="M10565 13099 c-22 -22 -52 -49 -66 -60 l-26 -18 -41 38 c-22 21 -54
43 -70 49 -28 10 -35 7 -88 -34 -32 -25 -84 -61 -116 -81 -93 -57 -71 -97 24
-44 30 17 60 31 66 31 21 0 75 -55 93 -95 42 -91 14 -253 -61 -358 -23 -31
-38 -57 -35 -57 3 0 20 6 38 14 39 16 88 65 127 126 l30 46 74 -73 c41 -40 80
-73 88 -73 7 0 48 37 91 82 l78 82 -46 18 c-135 53 -225 144 -225 226 0 49 13
58 57 37 49 -24 134 -31 173 -15 17 7 40 24 51 38 l20 25 -63 34 c-34 18 -78
49 -98 68 l-36 35 -39 -41z"/>
<path d="M11041 12960 c-149 -100 -186 -161 -179 -295 5 -94 23 -133 108 -227
35 -39 63 -61 88 -68 72 -20 82 -15 190 82 94 84 120 118 90 118 -6 0 -20 -8
-31 -17 -15 -14 -37 -18 -101 -18 -76 0 -84 2 -129 33 -118 82 -140 209 -50
298 l35 35 44 -40 c36 -34 51 -41 84 -41 43 0 103 20 114 39 8 12 -140 161
-160 161 -7 0 -53 -27 -103 -60z"/>
<path d="M11631 12942 c-153 -76 -255 -242 -236 -387 16 -133 121 -258 223
-267 25 -3 46 11 120 75 77 67 94 87 122 148 59 128 50 250 -25 351 -34 47
-91 91 -130 102 -11 3 -43 -6 -74 -22z m-9 -118 c41 -21 116 -92 134 -125 20
-40 17 -136 -6 -212 -27 -88 -40 -97 -90 -62 -157 109 -203 272 -108 381 17
19 32 34 35 34 2 0 18 -7 35 -16z"/>
<path d="M11971 12696 c-23 -27 6 -45 82 -53 63 -5 67 -5 67 14 0 30 -22 44
-82 50 -43 4 -56 2 -67 -11z"/>
<path d="M11970 12594 c-11 -12 -11 -18 2 -30 18 -19 132 -31 142 -16 26 43
-111 87 -144 46z"/>
<path d="M9373 12313 c4 -43 10 -208 13 -368 4 -159 11 -298 15 -307 5 -9 30
-34 55 -54 l46 -38 26 35 c15 19 48 57 74 85 60 64 61 75 4 68 -76 -11 -76 -9
-76 342 l0 301 -37 7 c-21 3 -58 6 -82 6 l-44 0 6 -77z"/>
<path d="M10526 12343 c-19 -37 -100 -114 -153 -147 -24 -14 -43 -33 -43 -40
0 -8 15 -23 33 -35 l32 -20 0 -193 c0 -223 5 -242 78 -277 51 -25 59 -25 95
-7 31 16 128 134 118 143 -4 4 -22 1 -41 -5 -40 -15 -82 -7 -95 18 -6 10 -10
86 -10 169 l0 150 58 3 c54 3 57 5 60 30 3 26 0 28 -48 34 -31 4 -54 13 -59
23 -8 15 -3 64 15 149 5 25 3 32 -9 32 -9 0 -23 -12 -31 -27z"/>
<path d="M9975 12246 c-34 -15 -104 -82 -147 -140 -31 -43 -37 -99 -15 -150
12 -28 10 -34 -30 -93 -50 -74 -60 -116 -44 -181 12 -46 54 -122 69 -122 4 0
36 25 72 56 36 31 83 65 104 76 l39 20 21 -25 c12 -13 35 -34 53 -46 l31 -21
74 87 c100 119 99 117 48 108 -37 -6 -45 -4 -72 21 l-30 29 3 141 4 141 -29
37 c-30 40 -81 76 -106 76 -8 -1 -28 -7 -45 -14z m-27 -120 c53 -28 69 -56 77
-133 l7 -73 -55 0 c-40 0 -63 6 -88 23 -31 21 -34 28 -37 78 -3 50 0 59 27 87
33 37 33 37 69 18z m74 -297 c-4 -46 -7 -51 -46 -74 -53 -31 -70 -31 -90 -3
-18 26 -21 67 -5 100 9 20 17 23 77 24 l67 2 -3 -49z"/>
<path d="M10785 12095 c-67 -61 -69 -64 -42 -65 18 0 40 -11 58 -29 l29 -29 0
-156 0 -156 41 -45 c23 -25 50 -45 60 -45 10 0 60 18 111 41 126 55 124 55
132 26 6 -27 69 -87 89 -87 7 0 32 18 57 39 42 37 44 40 29 58 -28 31 -33 63
-30 228 l2 161 -56 62 c-31 34 -63 62 -72 62 -14 0 -143 -116 -143 -130 0 -3
16 -7 36 -8 39 -3 74 -18 86 -36 4 -6 8 -59 8 -117 0 -138 -10 -154 -97 -153
-34 1 -72 8 -92 19 l-34 17 6 153 7 153 -46 51 c-25 28 -51 51 -58 51 -7 0
-43 -29 -81 -65z"/>
<path d="M11503 12010 c-87 -72 -87 -71 -16 -85 18 -3 44 -15 58 -26 l25 -20
0 -210 0 -209 75 0 75 0 2 211 c3 204 4 212 24 226 20 13 26 10 83 -42 l61
-57 27 22 c101 79 142 138 88 128 -15 -3 -30 1 -37 10 -7 8 -35 32 -61 53
l-48 38 -65 -44 -65 -44 -59 59 c-33 33 -66 60 -72 59 -7 0 -50 -31 -95 -69z"/>
<path d="M8925 10412 c-90 -38 -121 -66 -109 -97 8 -19 70 -19 104 0 36 20 41
18 30 -11 -15 -39 -12 -76 10 -116 l19 -37 -52 16 c-29 8 -55 17 -59 20 -16 9
-7 -25 10 -39 54 -48 150 -68 229 -49 26 7 100 41 163 75 63 35 132 69 153 76
42 13 49 30 13 30 -14 0 -91 34 -173 75 -146 74 -149 75 -223 74 -47 0 -90 -6
-115 -17z m309 -112 c31 -18 58 -35 60 -39 3 -4 -34 -26 -81 -50 l-85 -42 21
34 c26 43 27 73 1 114 l-19 32 24 -9 c13 -5 48 -23 79 -40z"/>
</g>
</svg>
